# xmcd
#
# Track frame offsets: 
#        150
#        32497
#        54882
#        75005
#        91912
#        111165
#        122737
#        140852
#        157280
#        182825
#
# Disc length: 2628 seconds
#
# Revision: 7
# Processed by: cddbd v1.5.2PL0 Copyright (c) Steve Scherf et al.
# Submitted via: ExactAudioCopy v1.3
#
DISCID=7b0a420a
DTITLE=AIR French Band - Moon Safari
DYEAR=1998
DGENRE=Trip-Hop
TTITLE0=La Femme D'Argent
TTITLE1=Sexy Boy
TTITLE2=All I Need
TTITLE3=Kelly Watch The Stars!
TTITLE4=Talisman
TTITLE5=Remember
TTITLE6=You Make It Easy
TTITLE7=Ce Latin La
TTITLE8=New Star In The Sky (Chanson Pour Solal)
TTITLE9=Le Voyage De Penelope
EXTD=
EXTT0=
EXTT1=
EXTT2=
EXTT3=
EXTT4=
EXTT5=
EXTT6=
EXTT7=
EXTT8=
EXTT9=
PLAYORDER=
